<svg xmlns="http://www.w3.org/2000/svg" xmlns:xlink="http://www.w3.org/1999/xlink" width="500" zoomAndPan="magnify" viewBox="0 0 375 374.999991" height="500" preserveAspectRatio="xMidYMid meet" version="1.0"><defs><clipPath id="53e3739f1c"><path d="M 187.5 0 C 83.945312 0 0 83.945312 0 187.5 C 0 291.054688 83.945312 375 187.5 375 C 291.054688 375 375 291.054688 375 187.5 C 375 83.945312 291.054688 0 187.5 0 " clip-rule="nonzero"/></clipPath><clipPath id="f8c94dddb0"><path d="M 108.046875 86 L 266.953125 86 L 266.953125 311.867188 L 108.046875 311.867188 Z M 108.046875 86 " clip-rule="nonzero"/></clipPath></defs><g clip-path="url(#53e3739f1c)"><rect x="-37.5" width="450" fill="#ffffff" y="-37.499999" height="449.999989" fill-opacity="1"/></g><path fill="#000000" d="M 188.800781 81.839844 C 188.800781 82.433594 188.828125 83.023438 188.886719 83.613281 C 188.949219 84.203125 189.035156 84.789062 189.152344 85.367188 C 189.269531 85.949219 189.417969 86.523438 189.589844 87.089844 C 189.765625 87.65625 189.96875 88.214844 190.199219 88.761719 C 190.429688 89.308594 190.6875 89.84375 190.96875 90.367188 C 191.253906 90.890625 191.5625 91.398438 191.898438 91.890625 C 192.234375 92.382812 192.589844 92.859375 192.972656 93.316406 C 193.355469 93.773438 193.757812 94.214844 194.183594 94.632812 C 194.609375 95.050781 195.054688 95.449219 195.519531 95.824219 C 195.988281 96.199219 196.46875 96.550781 196.96875 96.882812 C 197.472656 97.210938 197.988281 97.515625 198.519531 97.792969 C 199.050781 98.074219 199.59375 98.328125 200.148438 98.554688 C 200.703125 98.78125 201.269531 98.980469 201.847656 99.152344 C 202.421875 99.324219 203.007812 99.46875 203.597656 99.582031 C 204.1875 99.699219 204.78125 99.785156 205.382812 99.84375 C 205.980469 99.902344 206.582031 99.929688 207.183594 99.929688 C 207.785156 99.929688 208.386719 99.902344 208.984375 99.84375 C 209.585938 99.785156 210.179688 99.699219 210.769531 99.582031 C 211.359375 99.46875 211.945312 99.324219 212.519531 99.152344 C 213.097656 98.980469 213.664062 98.78125 214.21875 98.554688 C 214.777344 98.328125 215.320312 98.074219 215.851562 97.792969 C 216.382812 97.515625 216.898438 97.210938 217.398438 96.882812 C 217.898438 96.550781 218.382812 96.199219 218.847656 95.824219 C 219.3125 95.449219 219.757812 95.050781 220.183594 94.632812 C 220.609375 94.214844 221.011719 93.773438 221.394531 93.316406 C 221.777344 92.859375 222.136719 92.382812 222.46875 91.890625 C 222.804688 91.398438 223.113281 90.890625 223.398438 90.367188 C 223.679688 89.84375 223.9375 89.308594 224.167969 88.761719 C 224.398438 88.214844 224.601562 87.65625 224.777344 87.089844 C 224.953125 86.523438 225.097656 85.949219 225.214844 85.367188 C 225.332031 84.789062 225.421875 84.203125 225.480469 83.613281 C 225.539062 83.023438 225.570312 82.433594 225.570312 81.839844 C 225.570312 81.246094 225.539062 80.65625 225.480469 80.066406 C 225.421875 79.476562 225.332031 78.890625 225.214844 78.308594 C 225.097656 77.730469 224.953125 77.15625 224.777344 76.585938 C 224.601562 76.019531 224.398438 75.464844 224.167969 74.914062 C 223.9375 74.367188 223.679688 73.832031 223.398438 73.3125 C 223.113281 72.789062 222.804688 72.28125 222.46875 71.789062 C 222.136719 71.296875 221.777344 70.820312 221.394531 70.363281 C 221.011719 69.902344 220.609375 69.464844 220.183594 69.046875 C 219.757812 68.628906 219.3125 68.230469 218.847656 67.855469 C 218.382812 67.476562 217.898438 67.125 217.398438 66.796875 C 216.898438 66.46875 216.382812 66.164062 215.851562 65.882812 C 215.320312 65.605469 214.777344 65.351562 214.21875 65.125 C 213.664062 64.898438 213.097656 64.699219 212.519531 64.527344 C 211.945312 64.355469 211.363281 64.210938 210.769531 64.09375 C 210.179688 63.980469 209.585938 63.894531 208.984375 63.835938 C 208.386719 63.777344 207.785156 63.746094 207.183594 63.746094 C 206.582031 63.746094 205.980469 63.777344 205.382812 63.835938 C 204.78125 63.894531 204.1875 63.980469 203.597656 64.09375 C 203.007812 64.210938 202.421875 64.355469 201.847656 64.527344 C 201.269531 64.699219 200.703125 64.898438 200.148438 65.125 C 199.59375 65.351562 199.050781 65.605469 198.519531 65.882812 C 197.988281 66.164062 197.472656 66.46875 196.96875 66.796875 C 196.46875 67.125 195.988281 67.476562 195.519531 67.855469 C 195.054688 68.230469 194.609375 68.628906 194.183594 69.046875 C 193.757812 69.464844 193.355469 69.902344 192.972656 70.363281 C 192.589844 70.820312 192.234375 71.296875 191.898438 71.789062 C 191.5625 72.28125 191.253906 72.789062 190.96875 73.3125 C 190.6875 73.832031 190.429688 74.367188 190.199219 74.914062 C 189.96875 75.464844 189.765625 76.019531 189.589844 76.585938 C 189.417969 77.15625 189.269531 77.730469 189.152344 78.308594 C 189.035156 78.890625 188.949219 79.476562 188.886719 80.066406 C 188.828125 80.65625 188.800781 81.246094 188.800781 81.839844 Z M 188.800781 81.839844 " fill-opacity="1" fill-rule="nonzero"/><g clip-path="url(#f8c94dddb0)"><path fill="#000000" d="M 149.828125 86.308594 L 172.453125 93.125 L 160.890625 133.078125 L 173.519531 110.988281 L 188.246094 101.007812 L 215.105469 118.910156 L 228.265625 156.730469 L 266.71875 180.417969 L 257.753906 195.121094 L 251.992188 191.429688 L 219.871094 255.601562 L 229.863281 306.566406 L 208.804688 309.726562 L 204.039062 291.863281 L 191.945312 311.859375 L 185.078125 311.859375 L 182.980469 306.070312 L 199.308594 271.867188 L 195.644531 252.941406 L 168.253906 225.097656 L 160.359375 247.1875 L 126.101562 310.792969 L 108.210938 302.910156 L 142.429688 210.359375 L 142.960938 184.078125 L 147.195312 158.332031 L 129.265625 153.074219 Z M 205.105469 156.730469 L 188.777344 181.984375 L 188.246094 188.800781 L 210.371094 227.191406 L 216.167969 238.769531 L 242.492188 186.175781 L 216.167969 176.726562 Z M 205.105469 156.730469 " fill-opacity="1" fill-rule="evenodd"/></g></svg>