<svg xmlns="http://www.w3.org/2000/svg" xmlns:xlink="http://www.w3.org/1999/xlink" width="500" zoomAndPan="magnify" viewBox="0 0 375 374.999991" height="500" preserveAspectRatio="xMidYMid meet" version="1.0"><defs><clipPath id="f1862afdc2"><path d="M 187.5 0 C 83.945312 0 0 83.945312 0 187.5 C 0 291.054688 83.945312 375 187.5 375 C 291.054688 375 375 291.054688 375 187.5 C 375 83.945312 291.054688 0 187.5 0 " clip-rule="nonzero"/></clipPath><clipPath id="56d37629ea"><path d="M 56.976562 190 L 163 190 L 163 296.339844 L 56.976562 296.339844 Z M 56.976562 190 " clip-rule="nonzero"/></clipPath><clipPath id="130e44e20d"><path d="M 123 110 L 317.976562 110 L 317.976562 296 L 123 296 Z M 123 110 " clip-rule="nonzero"/></clipPath></defs><g clip-path="url(#f1862afdc2)"><rect x="-37.5" width="450" fill="#ffffff" y="-37.499999" height="449.999989" fill-opacity="1"/></g><g clip-path="url(#56d37629ea)"><path fill="#100f0d" d="M 108.300781 199.855469 C 132.363281 199.207031 152.402344 218.183594 153.054688 242.214844 C 153.054688 242.632812 153.054688 243.074219 153.054688 243.492188 C 153.261719 267.527344 133.894531 287.199219 109.835938 287.382812 C 85.75 287.59375 66.058594 268.246094 65.871094 244.210938 C 65.871094 243.957031 65.871094 243.722656 65.871094 243.492188 C 65.824219 219.851562 84.636719 200.480469 108.300781 199.855469 Z M 108.230469 190.785156 C 79.621094 191.457031 56.835938 214.886719 56.976562 243.492188 C 56.769531 272.46875 80.085938 296.105469 109.089844 296.339844 C 138.097656 296.570312 161.785156 273.253906 162.019531 244.28125 C 162.019531 244.003906 162.019531 243.746094 162.019531 243.492188 C 162.160156 214.515625 138.773438 190.902344 109.765625 190.761719 C 109.253906 190.761719 108.742188 190.761719 108.230469 190.785156 " fill-opacity="1" fill-rule="nonzero"/></g><g clip-path="url(#130e44e20d)"><path fill="#100f0d" d="M 267.757812 199.996094 C 291.816406 201.15625 310.351562 221.570312 309.1875 245.601562 C 308.027344 269.613281 287.589844 288.148438 263.554688 286.988281 C 239.492188 285.828125 220.9375 265.414062 222.121094 241.378906 C 222.820312 226.765625 230.832031 213.472656 243.417969 206.027344 L 261.601562 245.347656 C 262.742188 247.527344 265.433594 248.386719 267.617188 247.25 C 269.660156 246.183594 270.566406 243.746094 269.707031 241.636719 L 251.523438 202.292969 C 256.726562 200.503906 262.253906 199.714844 267.757812 199.996094 Z M 197.132812 110.355469 C 194.183594 110.285156 191.257812 111.027344 188.703125 112.535156 L 131.175781 146.105469 C 123.582031 150.535156 121.027344 160.300781 125.488281 167.886719 C 126.949219 170.394531 129.085938 172.480469 131.664062 173.851562 L 176.09375 197.835938 L 176.09375 242.867188 C 176.230469 248.132812 180.621094 252.285156 185.917969 252.144531 C 190.980469 252.003906 195.066406 247.921875 195.207031 242.867188 L 195.207031 194.054688 C 195.207031 189.371094 192.652344 185.078125 188.515625 182.851562 L 165.992188 170.671875 C 164.433594 169.8125 163.875 167.863281 164.734375 166.332031 C 165.039062 165.824219 165.457031 165.382812 165.992188 165.105469 L 199.015625 146.175781 C 200.546875 145.292969 202.476562 145.824219 203.359375 147.355469 C 203.402344 147.425781 203.449219 147.496094 203.496094 147.566406 L 214.667969 170.902344 C 215.710938 173.109375 217.941406 174.523438 220.402344 174.523438 L 228.949219 174.523438 L 239.75 197.90625 C 214.550781 212.242188 205.75 244.257812 220.078125 269.429688 C 234.429688 294.621094 266.480469 303.414062 291.703125 289.101562 C 316.898438 274.761719 325.722656 242.726562 311.371094 217.554688 C 298.714844 195.355469 271.914062 185.472656 247.855469 194.171875 L 238.773438 174.523438 L 258.5625 174.523438 C 263.832031 174.523438 268.128906 170.253906 268.128906 164.964844 C 268.128906 159.699219 263.832031 155.40625 258.5625 155.40625 L 230.4375 155.40625 C 229.230469 155.40625 228.113281 154.710938 227.582031 153.597656 L 211.113281 119.402344 C 208.535156 113.996094 203.125 110.519531 197.132812 110.355469 " fill-opacity="1" fill-rule="nonzero"/></g><path fill="#100f0d" d="M 264.738281 102.144531 C 264.832031 88.941406 254.195312 78.15625 240.980469 78.0625 C 227.742188 77.96875 216.96875 88.59375 216.875 101.796875 C 216.875 101.910156 216.875 102.027344 216.875 102.144531 C 216.78125 115.34375 227.417969 126.128906 240.632812 126.222656 C 253.847656 126.316406 264.644531 115.691406 264.738281 102.46875 C 264.738281 102.375 264.738281 102.257812 264.738281 102.144531 " fill-opacity="1" fill-rule="nonzero"/></svg>