<svg xmlns="http://www.w3.org/2000/svg" xmlns:xlink="http://www.w3.org/1999/xlink" width="500" zoomAndPan="magnify" viewBox="0 0 375 374.999991" height="500" preserveAspectRatio="xMidYMid meet" version="1.0"><defs><clipPath id="d26178ec7b"><path d="M 56.25 0 L 318.75 0 L 318.75 375 L 56.25 375 Z M 56.25 0 " clip-rule="nonzero"/></clipPath><clipPath id="4b8ecb8e47"><path d="M 135.320312 75.996094 L 239.679688 75.996094 L 239.679688 180.355469 L 135.320312 180.355469 Z M 135.320312 75.996094 " clip-rule="nonzero"/></clipPath><clipPath id="fec7c7318f"><path d="M 187.5 75.996094 C 158.683594 75.996094 135.320312 99.359375 135.320312 128.175781 C 135.320312 156.992188 158.683594 180.355469 187.5 180.355469 C 216.316406 180.355469 239.679688 156.992188 239.679688 128.175781 C 239.679688 99.359375 216.316406 75.996094 187.5 75.996094 " clip-rule="nonzero"/></clipPath><clipPath id="d19c1bd440"><path d="M 93.003906 141 L 170 141 L 170 218.386719 L 93.003906 218.386719 Z M 93.003906 141 " clip-rule="nonzero"/></clipPath><clipPath id="c383f850fc"><path d="M 141 83 L 282.003906 83 L 282.003906 218.386719 L 141 218.386719 Z M 141 83 " clip-rule="nonzero"/></clipPath><clipPath id="23f26878f6"><path d="M 208 59.769531 L 244 59.769531 L 244 95 L 208 95 Z M 208 59.769531 " clip-rule="nonzero"/></clipPath></defs><g clip-path="url(#d26178ec7b)"><path fill="#ffffff" d="M 187.5 0 C 115.03125 0 56.25 58.78125 56.25 131.25 C 56.25 229.6875 187.5 375 187.5 375 C 187.5 375 318.75 229.6875 318.75 131.25 C 318.75 58.78125 259.96875 0 187.5 0 Z M 187.5 178.125 C 161.625 178.125 140.625 157.125 140.625 131.25 C 140.625 105.375 161.625 84.375 187.5 84.375 C 213.375 84.375 234.375 105.375 234.375 131.25 C 234.375 157.125 213.375 178.125 187.5 178.125 Z M 187.5 178.125 " fill-opacity="1" fill-rule="nonzero"/></g><g clip-path="url(#4b8ecb8e47)"><g clip-path="url(#fec7c7318f)"><path fill="#ffffff" d="M 135.320312 75.996094 L 239.679688 75.996094 L 239.679688 180.355469 L 135.320312 180.355469 Z M 135.320312 75.996094 " fill-opacity="1" fill-rule="nonzero"/></g></g><g clip-path="url(#d19c1bd440)"><path fill="#100f0d" d="M 130.167969 148.339844 C 147.589844 147.867188 162.105469 161.644531 162.574219 179.09375 C 162.574219 179.398438 162.574219 179.714844 162.574219 180.019531 C 162.726562 197.46875 148.703125 211.75 131.277344 211.886719 C 113.839844 212.035156 99.578125 197.992188 99.441406 180.542969 C 99.441406 180.355469 99.441406 180.1875 99.441406 180.019531 C 99.410156 162.855469 113.03125 148.792969 130.167969 148.339844 Z M 130.117188 141.753906 C 109.398438 142.242188 92.902344 159.253906 93.003906 180.019531 C 92.851562 201.054688 109.734375 218.21875 130.742188 218.386719 C 151.746094 218.554688 168.898438 201.628906 169.066406 180.59375 C 169.066406 180.390625 169.066406 180.203125 169.066406 180.019531 C 169.167969 158.984375 152.234375 141.839844 131.226562 141.738281 C 130.859375 141.738281 130.488281 141.738281 130.117188 141.753906 " fill-opacity="1" fill-rule="nonzero"/></g><g clip-path="url(#c383f850fc)"><path fill="#100f0d" d="M 245.636719 148.441406 C 263.058594 149.28125 276.480469 164.105469 275.636719 181.550781 C 274.796875 198.984375 260 212.441406 242.59375 211.597656 C 225.167969 210.757812 211.734375 195.9375 212.589844 178.488281 C 213.09375 167.875 218.898438 158.226562 228.011719 152.820312 L 241.179688 181.367188 C 242.003906 182.949219 243.953125 183.574219 245.535156 182.75 C 247.015625 181.972656 247.671875 180.203125 247.050781 178.671875 L 233.882812 150.109375 C 237.648438 148.8125 241.652344 148.238281 245.636719 148.441406 Z M 194.496094 83.363281 C 192.359375 83.3125 190.238281 83.851562 188.390625 84.945312 L 146.734375 109.316406 C 141.234375 112.53125 139.382812 119.621094 142.613281 125.128906 C 143.671875 126.949219 145.21875 128.464844 147.085938 129.457031 L 179.257812 146.875 L 179.257812 179.566406 C 179.359375 183.386719 182.539062 186.402344 186.371094 186.300781 C 190.039062 186.199219 193 183.238281 193.097656 179.566406 L 193.097656 144.128906 C 193.097656 140.726562 191.25 137.609375 188.253906 135.992188 L 171.941406 127.152344 C 170.816406 126.527344 170.414062 125.113281 171.035156 124.003906 C 171.253906 123.632812 171.554688 123.3125 171.941406 123.109375 L 195.855469 109.367188 C 196.96875 108.726562 198.363281 109.113281 199 110.226562 C 199.035156 110.277344 199.070312 110.324219 199.101562 110.375 L 207.191406 127.320312 C 207.949219 128.921875 209.5625 129.949219 211.347656 129.949219 L 217.535156 129.949219 L 225.355469 146.925781 C 207.109375 157.332031 200.734375 180.574219 211.109375 198.847656 C 221.503906 217.140625 244.710938 223.523438 262.976562 213.132812 C 281.222656 202.722656 287.613281 179.464844 277.21875 161.191406 C 268.054688 145.070312 248.648438 137.898438 231.222656 144.210938 L 224.648438 129.949219 L 238.976562 129.949219 C 242.792969 129.949219 245.90625 126.847656 245.90625 123.007812 C 245.90625 119.183594 242.792969 116.070312 238.976562 116.070312 L 218.609375 116.070312 C 217.738281 116.070312 216.929688 115.5625 216.542969 114.753906 L 204.617188 89.929688 C 202.753906 86.003906 198.832031 83.480469 194.496094 83.363281 " fill-opacity="1" fill-rule="nonzero"/></g><g clip-path="url(#23f26878f6)"><path fill="#100f0d" d="M 243.449219 77.398438 C 243.515625 67.816406 235.816406 59.984375 226.246094 59.917969 C 216.660156 59.847656 208.855469 67.5625 208.789062 77.148438 C 208.789062 77.230469 208.789062 77.316406 208.789062 77.398438 C 208.722656 86.984375 216.425781 94.8125 225.992188 94.882812 C 235.5625 94.949219 243.382812 87.234375 243.449219 77.636719 C 243.449219 77.566406 243.449219 77.484375 243.449219 77.398438 " fill-opacity="1" fill-rule="nonzero"/></g></svg>