<svg xmlns="http://www.w3.org/2000/svg" xmlns:xlink="http://www.w3.org/1999/xlink" width="500" zoomAndPan="magnify" viewBox="0 0 375 374.999991" height="500" preserveAspectRatio="xMidYMid meet" version="1.0"><defs><clipPath id="85048db58f"><path d="M 56.25 0 L 318.75 0 L 318.75 375 L 56.25 375 Z M 56.25 0 " clip-rule="nonzero"/></clipPath><clipPath id="ca05d0c3ae"><path d="M 135.320312 75.996094 L 239.679688 75.996094 L 239.679688 180.355469 L 135.320312 180.355469 Z M 135.320312 75.996094 " clip-rule="nonzero"/></clipPath><clipPath id="f48dde02aa"><path d="M 187.5 75.996094 C 158.683594 75.996094 135.320312 99.359375 135.320312 128.175781 C 135.320312 156.992188 158.683594 180.355469 187.5 180.355469 C 216.316406 180.355469 239.679688 156.992188 239.679688 128.175781 C 239.679688 99.359375 216.316406 75.996094 187.5 75.996094 " clip-rule="nonzero"/></clipPath><clipPath id="603a0b172c"><path d="M 192 50.003906 L 225 50.003906 L 225 83 L 192 83 Z M 192 50.003906 " clip-rule="nonzero"/></clipPath><clipPath id="d09e9131e6"><path d="M 121.214844 70 L 261.277344 70 L 261.277344 270.503906 L 121.214844 270.503906 Z M 121.214844 70 " clip-rule="nonzero"/></clipPath></defs><g clip-path="url(#85048db58f)"><path fill="#ffffff" d="M 187.5 0 C 115.03125 0 56.25 58.78125 56.25 131.25 C 56.25 229.6875 187.5 375 187.5 375 C 187.5 375 318.75 229.6875 318.75 131.25 C 318.75 58.78125 259.96875 0 187.5 0 Z M 187.5 178.125 C 161.625 178.125 140.625 157.125 140.625 131.25 C 140.625 105.375 161.625 84.375 187.5 84.375 C 213.375 84.375 234.375 105.375 234.375 131.25 C 234.375 157.125 213.375 178.125 187.5 178.125 Z M 187.5 178.125 " fill-opacity="1" fill-rule="nonzero"/></g><g clip-path="url(#ca05d0c3ae)"><g clip-path="url(#f48dde02aa)"><path fill="#ffffff" d="M 135.320312 75.996094 L 239.679688 75.996094 L 239.679688 180.355469 L 135.320312 180.355469 Z M 135.320312 75.996094 " fill-opacity="1" fill-rule="nonzero"/></g></g><g clip-path="url(#603a0b172c)"><path fill="#000000" d="M 192.527344 66.804688 C 192.527344 67.328125 192.554688 67.851562 192.605469 68.375 C 192.65625 68.894531 192.734375 69.414062 192.839844 69.929688 C 192.941406 70.441406 193.070312 70.953125 193.226562 71.453125 C 193.378906 71.957031 193.558594 72.449219 193.761719 72.933594 C 193.964844 73.417969 194.191406 73.890625 194.441406 74.355469 C 194.691406 74.816406 194.964844 75.265625 195.261719 75.703125 C 195.554688 76.140625 195.871094 76.5625 196.207031 76.964844 C 196.546875 77.371094 196.902344 77.761719 197.277344 78.132812 C 197.652344 78.503906 198.046875 78.855469 198.457031 79.1875 C 198.867188 79.519531 199.292969 79.832031 199.734375 80.125 C 200.175781 80.414062 200.632812 80.683594 201.101562 80.933594 C 201.570312 81.179688 202.046875 81.402344 202.539062 81.605469 C 203.03125 81.804688 203.527344 81.980469 204.039062 82.132812 C 204.546875 82.285156 205.058594 82.414062 205.582031 82.515625 C 206.101562 82.617188 206.625 82.695312 207.15625 82.746094 C 207.683594 82.796875 208.214844 82.824219 208.746094 82.824219 C 209.277344 82.824219 209.804688 82.796875 210.335938 82.746094 C 210.863281 82.695312 211.386719 82.617188 211.910156 82.515625 C 212.429688 82.414062 212.945312 82.285156 213.453125 82.132812 C 213.960938 81.980469 214.460938 81.804688 214.949219 81.605469 C 215.441406 81.402344 215.921875 81.179688 216.390625 80.933594 C 216.859375 80.683594 217.3125 80.414062 217.753906 80.125 C 218.195312 79.832031 218.621094 79.519531 219.03125 79.1875 C 219.445312 78.855469 219.835938 78.503906 220.210938 78.132812 C 220.585938 77.761719 220.945312 77.371094 221.28125 76.964844 C 221.617188 76.5625 221.933594 76.140625 222.230469 75.703125 C 222.523438 75.265625 222.796875 74.816406 223.046875 74.355469 C 223.296875 73.890625 223.523438 73.417969 223.726562 72.933594 C 223.929688 72.449219 224.109375 71.957031 224.265625 71.453125 C 224.417969 70.953125 224.546875 70.441406 224.652344 69.929688 C 224.753906 69.414062 224.832031 68.894531 224.882812 68.375 C 224.9375 67.851562 224.960938 67.328125 224.960938 66.804688 C 224.960938 66.277344 224.9375 65.753906 224.882812 65.234375 C 224.832031 64.710938 224.753906 64.191406 224.652344 63.675781 C 224.546875 63.164062 224.417969 62.65625 224.265625 62.152344 C 224.109375 61.648438 223.929688 61.15625 223.726562 60.671875 C 223.523438 60.1875 223.296875 59.714844 223.046875 59.25 C 222.796875 58.789062 222.523438 58.339844 222.230469 57.902344 C 221.933594 57.464844 221.617188 57.046875 221.28125 56.640625 C 220.945312 56.234375 220.585938 55.84375 220.210938 55.472656 C 219.835938 55.101562 219.445312 54.75 219.03125 54.417969 C 218.621094 54.085938 218.195312 53.773438 217.753906 53.480469 C 217.3125 53.191406 216.859375 52.921875 216.390625 52.671875 C 215.921875 52.425781 215.441406 52.203125 214.949219 52 C 214.460938 51.800781 213.960938 51.625 213.453125 51.472656 C 212.945312 51.320312 212.429688 51.191406 211.910156 51.089844 C 211.386719 50.988281 210.863281 50.910156 210.335938 50.859375 C 209.804688 50.808594 209.277344 50.78125 208.746094 50.78125 C 208.214844 50.78125 207.683594 50.808594 207.15625 50.859375 C 206.625 50.910156 206.101562 50.988281 205.582031 51.089844 C 205.058594 51.191406 204.546875 51.320312 204.039062 51.472656 C 203.527344 51.625 203.03125 51.800781 202.539062 52 C 202.046875 52.203125 201.570312 52.425781 201.101562 52.675781 C 200.632812 52.921875 200.175781 53.191406 199.734375 53.480469 C 199.292969 53.773438 198.867188 54.085938 198.457031 54.417969 C 198.046875 54.75 197.652344 55.101562 197.277344 55.472656 C 196.902344 55.84375 196.546875 56.234375 196.207031 56.640625 C 195.871094 57.046875 195.554688 57.464844 195.261719 57.902344 C 194.964844 58.339844 194.691406 58.789062 194.441406 59.25 C 194.191406 59.714844 193.964844 60.1875 193.761719 60.671875 C 193.558594 61.15625 193.378906 61.648438 193.226562 62.152344 C 193.070312 62.65625 192.941406 63.164062 192.839844 63.675781 C 192.734375 64.191406 192.65625 64.710938 192.605469 65.234375 C 192.554688 65.753906 192.527344 66.277344 192.527344 66.804688 Z M 192.527344 66.804688 " fill-opacity="1" fill-rule="nonzero"/></g><g clip-path="url(#d09e9131e6)"><path fill="#000000" d="M 158.148438 70.757812 L 178.105469 76.796875 L 167.910156 112.179688 L 179.046875 92.617188 L 192.039062 83.777344 L 215.730469 99.628906 L 227.339844 133.121094 L 261.261719 154.097656 L 253.351562 167.121094 L 248.269531 163.847656 L 219.933594 220.679688 L 228.753906 265.808594 L 210.175781 268.605469 L 205.972656 252.789062 L 195.300781 270.492188 L 189.246094 270.492188 L 187.394531 265.367188 L 201.796875 235.082031 L 198.566406 218.320312 L 174.40625 193.664062 L 167.4375 213.226562 L 137.21875 269.550781 L 121.4375 262.570312 L 151.621094 180.613281 L 152.09375 157.339844 L 155.828125 134.539062 L 140.011719 129.882812 L 158.148438 70.761719 Z M 206.910156 133.125 L 192.507812 155.484375 L 192.039062 161.523438 L 211.554688 195.519531 L 216.671875 205.773438 L 239.890625 159.195312 L 216.671875 150.832031 Z M 206.910156 133.125 " fill-opacity="1" fill-rule="evenodd"/></g></svg>