<svg xmlns="http://www.w3.org/2000/svg" xmlns:xlink="http://www.w3.org/1999/xlink" width="500" zoomAndPan="magnify" viewBox="0 0 375 374.999991" height="500" preserveAspectRatio="xMidYMid meet" version="1.0"><defs><filter x="0%" y="0%" width="100%" height="100%" id="9d08207497"><feColorMatrix values="0 0 0 0 1 0 0 0 0 1 0 0 0 0 1 0 0 0 1 0" color-interpolation-filters="sRGB"/></filter><mask id="3aac4b6c5c"><g filter="url(#9d08207497)"><rect x="-37.5" width="450" fill="#000000" y="-37.499999" height="449.999989" fill-opacity="0.2"/></g></mask><clipPath id="d6215c8b68"><path d="M 0.25 0 L 262.75 0 L 262.75 375 L 0.25 375 Z M 0.25 0 " clip-rule="nonzero"/></clipPath><clipPath id="5c4278501c"><path d="M 79.320312 75.996094 L 183.679688 75.996094 L 183.679688 180.355469 L 79.320312 180.355469 Z M 79.320312 75.996094 " clip-rule="nonzero"/></clipPath><clipPath id="cc61c1092d"><path d="M 131.5 75.996094 C 102.683594 75.996094 79.320312 99.359375 79.320312 128.175781 C 79.320312 156.992188 102.683594 180.355469 131.5 180.355469 C 160.316406 180.355469 183.679688 156.992188 183.679688 128.175781 C 183.679688 99.359375 160.316406 75.996094 131.5 75.996094 " clip-rule="nonzero"/></clipPath><clipPath id="43f0878964"><rect x="0" width="263" y="0" height="375"/></clipPath></defs><g mask="url(#3aac4b6c5c)"><g transform="matrix(1, 0, 0, 1, 56, 0)"><g clip-path="url(#43f0878964)"><g clip-path="url(#d6215c8b68)"><path fill="#000000" d="M 131.5 0 C 59.03125 0 0.25 58.78125 0.25 131.25 C 0.25 229.6875 131.5 375 131.5 375 C 131.5 375 262.75 229.6875 262.75 131.25 C 262.75 58.78125 203.96875 0 131.5 0 Z M 131.5 178.125 C 105.625 178.125 84.625 157.125 84.625 131.25 C 84.625 105.375 105.625 84.375 131.5 84.375 C 157.375 84.375 178.375 105.375 178.375 131.25 C 178.375 157.125 157.375 178.125 131.5 178.125 Z M 131.5 178.125 " fill-opacity="1" fill-rule="nonzero"/></g><g clip-path="url(#5c4278501c)"><g clip-path="url(#cc61c1092d)"><path fill="#000000" d="M 79.320312 75.996094 L 183.679688 75.996094 L 183.679688 180.355469 L 79.320312 180.355469 Z M 79.320312 75.996094 " fill-opacity="1" fill-rule="nonzero"/></g></g></g></g></g></svg>